<svg width="446" height="287" viewBox="0 0 446 287" fill="none" xmlns="http://www.w3.org/2000/svg">
<g clip-path="url(#clip0)">
<path d="M372.291 286.7C372.588 286.439 372.878 286.17 373.162 285.895C376.504 282.65 382.499 275.904 385.339 272.674C385.538 272.447 385.687 272.182 385.776 271.894C385.865 271.607 385.892 271.303 385.856 271.004C385.82 270.705 385.721 270.418 385.565 270.159C385.41 269.901 385.202 269.679 384.955 269.507L379.438 265.658C379.652 265.551 379.771 265.49 379.771 265.49L375.812 259.77C376.25 251.031 357.633 227.25 352.973 223.694C348.314 220.138 363.906 192.05 363.906 192.05C366.277 191.133 368.194 189.186 369.661 187.121C369.751 187.137 369.84 187.155 369.931 187.168L371.926 186.984C372.759 186.908 373.539 186.539 374.126 185.944C374.714 185.348 375.072 184.564 375.137 183.731C375.342 181.379 375.416 179.017 375.358 176.657C375.764 175.434 375.773 173.225 378.432 171.473C381.908 169.182 404.237 111.85 393.963 101.355C393.963 101.355 389.586 94.8168 387.111 94.0164C387.111 94.0164 387.503 92.1017 386.031 91.2407L385.319 88.9967C385.319 88.9967 384.362 89.4182 382.938 90.0794C381.822 88.4406 380.827 86.7235 379.959 84.9414C380.452 82.799 387.862 73.3609 381.216 66.8357C374.474 60.2151 371.143 55.7227 366.12 57.5137C361.096 59.3046 349.292 61.9771 349.638 66.1874C349.983 70.3976 348.764 72.0525 350.939 73.7805C353.113 75.5084 353.189 75.3657 353.189 75.3657L353.189 75.3654C352.654 77.4572 352.648 79.6494 353.173 81.7438C353.698 83.8383 354.737 85.769 356.196 87.3614C357.656 88.9539 359.489 90.1579 361.531 90.8647C363.573 91.5715 365.759 91.7587 367.891 91.4095C368.898 93.3394 369.729 95.3563 370.374 97.4356C369.752 98.6158 369.541 99.9692 369.775 101.282C367.512 104.625 365.454 108.101 363.612 111.692C362.139 114.533 359.413 120.548 356.427 126.958C351.182 125.267 346.439 123.557 346.439 123.557C346.439 123.557 346.164 123.881 345.732 124.413C344.247 124.16 342.744 124.019 341.238 123.99L328.575 111.248C328.405 111.053 328.17 110.928 327.914 110.896C327.658 110.865 327.4 110.928 327.188 111.075L316.059 116.346C315.926 116.468 315.82 116.616 315.747 116.781C315.673 116.945 315.634 117.123 315.632 117.303C315.629 117.483 315.663 117.662 315.732 117.829C315.801 117.995 315.903 118.146 316.031 118.272L327.057 129.969C326.192 130.896 327.665 132.03 330.044 133.137L332.941 136.21C333.034 136.327 333.152 136.423 333.287 136.49C333.422 136.557 333.569 136.594 333.72 136.598C333.87 136.602 334.019 136.573 334.157 136.513C334.295 136.453 334.418 136.363 334.518 136.251L335.5 135.217C337.291 135.807 339.066 136.329 340.5 136.731C340.395 137.246 340.47 137.624 340.804 137.788C341.411 138.085 344.635 139.876 349.032 142.116C347.272 145.43 345.742 147.957 344.707 148.955C341.539 152.011 341.616 160.444 341.778 163.752C340.768 165.264 339.354 167.582 339.385 168.661C333.801 176.971 323.871 192.643 322.334 201.149C322.334 201.149 315.116 210.769 314.096 223.418C313.076 236.067 300.169 265.365 299.35 265.783C299.225 265.847 299.245 266.108 299.398 266.492C295.133 267.966 306.219 286.789 308.476 286.153C310.437 285.6 313.402 275.571 313.398 272.489C313.466 272.472 313.532 272.459 313.601 272.441C313.601 272.441 316.313 265.121 318.361 264.075C320.408 263.03 330.922 230.567 330.877 225.429C330.87 224.641 331.553 223.318 332.711 221.645C333.52 224.98 335.514 227.908 338.321 229.886C353.218 239.826 363.362 270.772 365.218 271.372C365.326 271.4 365.438 271.412 365.549 271.406C365.707 275.82 365.62 284.189 362.769 285.267C361.912 285.589 361.14 286.104 360.515 286.773" fill="#F2F2F2"/>
<path d="M435.642 222.267C434.214 221.54 432.612 221.225 431.015 221.357C429.417 221.489 427.889 222.063 426.6 223.015C422.73 225.959 422.141 231.722 423.596 236.359C425.051 240.997 428.096 244.937 430.481 249.173C433.683 254.862 435.746 261.373 435.214 267.879C434.682 274.386 431.266 280.839 425.568 284.033C420.28 286.997 413.873 286.884 407.813 286.691" stroke="#F2F2F2" stroke-miterlimit="10"/>
<path d="M445.213 228.293C446.1 226.771 444.278 224.058 441.144 222.233C438.009 220.408 434.749 220.162 433.862 221.683C432.975 223.204 434.797 225.917 437.931 227.742C441.066 229.567 444.326 229.814 445.213 228.293Z" fill="#F2F2F2"/>
<path d="M439.17 249.084C440.057 247.562 438.236 244.849 435.101 243.024C431.967 241.199 428.706 240.953 427.819 242.474C426.932 243.995 428.754 246.708 431.888 248.533C435.023 250.358 438.283 250.605 439.17 249.084Z" fill="#F2F2F2"/>
<path d="M427.091 245.957C427.979 244.436 426.157 241.723 423.022 239.898C419.888 238.073 416.628 237.827 415.741 239.348C414.853 240.869 416.675 243.582 419.81 245.407C422.944 247.232 426.204 247.478 427.091 245.957Z" fill="#F2F2F2"/>
<path d="M434.425 270.63C435.312 269.109 433.49 266.396 430.356 264.571C427.221 262.746 423.961 262.499 423.074 264.02C422.187 265.542 424.008 268.254 427.143 270.08C430.277 271.905 433.537 272.151 434.425 270.63Z" fill="#F2F2F2"/>
<path d="M445.775 277.239C446.663 275.718 444.841 273.005 441.706 271.18C438.572 269.355 435.312 269.109 434.425 270.63C433.537 272.151 435.359 274.864 438.494 276.689C441.628 278.514 444.888 278.76 445.775 277.239Z" fill="#F2F2F2"/>
<path d="M399.335 217.079C397.734 217.169 396.191 217.703 394.878 218.62C393.564 219.538 392.533 220.803 391.899 222.274C390.039 226.764 392.433 232.04 396.027 235.315C399.621 238.589 404.238 240.461 408.432 242.922C414.066 246.227 419.129 250.814 421.948 256.703C424.767 262.592 425.066 269.887 421.753 275.513C418.677 280.734 413.085 283.86 407.751 286.742" stroke="#3F3D56" stroke-miterlimit="10"/>
<path d="M404.071 220.658C407.699 220.658 410.64 219.23 410.64 217.47C410.64 215.709 407.699 214.282 404.071 214.282C400.443 214.282 397.503 215.709 397.503 217.47C397.503 219.23 400.443 220.658 404.071 220.658Z" fill="#536DFE"/>
<path d="M409.326 241.661C412.954 241.661 415.895 240.234 415.895 238.473C415.895 236.712 412.954 235.285 409.326 235.285C405.698 235.285 402.758 236.712 402.758 238.473C402.758 240.234 405.698 241.661 409.326 241.661Z" fill="#536DFE"/>
<path d="M397.315 245.037C400.943 245.037 403.884 243.609 403.884 241.849C403.884 240.088 400.943 238.661 397.315 238.661C393.687 238.661 390.746 240.088 390.746 241.849C390.746 243.609 393.687 245.037 397.315 245.037Z" fill="#536DFE"/>
<path d="M416.083 262.665C419.71 262.665 422.651 261.237 422.651 259.477C422.651 257.716 419.71 256.289 416.083 256.289C412.455 256.289 409.514 257.716 409.514 259.477C409.514 261.237 412.455 262.665 416.083 262.665Z" fill="#536DFE"/>
<path d="M429.22 262.665C432.848 262.665 435.789 261.237 435.789 259.477C435.789 257.716 432.848 256.289 429.22 256.289C425.592 256.289 422.651 257.716 422.651 259.477C422.651 261.237 425.592 262.665 429.22 262.665Z" fill="#536DFE"/>
<path d="M250.213 286.699H435.789" stroke="#3F3D56" stroke-miterlimit="10"/>
<path d="M296.017 128.988C296.017 128.988 275.376 132.247 277.913 128.134C280.45 124.022 293.957 119.913 296.434 120.771C298.912 121.629 296.017 128.988 296.017 128.988Z" fill="#FFC1C7"/>
<path opacity="0.1" d="M296.017 128.988C296.017 128.988 275.376 132.247 277.913 128.134C280.45 124.022 293.957 119.913 296.434 120.771C298.912 121.629 296.017 128.988 296.017 128.988Z" fill="black"/>
<path d="M319.689 83.0015C319.689 83.0015 306.355 86.576 312.534 97.9493C312.534 97.9493 322.616 117.772 318.388 119.071C314.16 120.371 294.648 119.721 294.648 119.721C294.648 119.721 290.095 130.77 292.371 131.095C294.648 131.42 331.071 138.893 334.974 131.745C338.876 124.596 334.974 93.7249 334.974 93.7249C334.974 93.7249 329.445 78.4521 319.689 83.0015Z" fill="#536DFE"/>
<path opacity="0.1" d="M319.689 83.0015C319.689 83.0015 306.355 86.576 312.534 97.9493C312.534 97.9493 322.616 117.772 318.388 119.071C314.16 120.371 294.648 119.721 294.648 119.721C294.648 119.721 290.095 130.77 292.371 131.095C294.648 131.42 331.071 138.893 334.974 131.745C338.876 124.596 334.974 93.7249 334.974 93.7249C334.974 93.7249 329.445 78.4521 319.689 83.0015Z" fill="black"/>
<path d="M357.413 251.977C357.413 251.977 363.267 265.95 360.015 268.55C356.762 271.15 357.413 276.024 359.689 276.024C361.966 276.024 367.169 271.475 370.096 265.95C372.276 261.835 375.9 253.573 377.607 249.625C377.727 249.349 377.786 249.05 377.783 248.749C377.779 248.448 377.711 248.151 377.585 247.878C377.458 247.605 377.275 247.361 377.048 247.163C376.821 246.966 376.554 246.818 376.266 246.73L366.844 243.854L357.413 251.977Z" fill="#3F3D56"/>
<path d="M295.624 268.875C295.624 268.875 283.266 278.949 276.762 278.624C270.257 278.299 269.282 285.123 276.762 286.098C284.241 287.072 306.681 287.397 308.632 286.098C310.583 284.798 309.933 271.15 308.632 270.825C307.331 270.5 295.624 268.875 295.624 268.875Z" fill="#3F3D56"/>
<path d="M337.575 165.215C337.575 165.215 337.575 175.288 332.372 179.513C332.372 179.513 326.193 211.033 331.721 212.983C337.25 214.933 362.291 231.83 364.567 240.279L370.096 244.503C370.096 244.503 360.014 254.577 358.063 254.577C356.112 254.577 336.925 228.256 319.689 223.381C319.689 223.381 308.957 220.782 309.282 206.809C309.607 192.836 322.29 155.791 322.29 155.791H336.925L337.575 165.215Z" fill="#2F2E41"/>
<path opacity="0.1" d="M337.575 165.215C337.575 165.215 337.575 175.288 332.372 179.513C332.372 179.513 326.193 211.033 331.721 212.983C337.25 214.933 362.291 231.83 364.567 240.279L370.096 244.503C370.096 244.503 360.014 254.577 358.063 254.577C356.112 254.577 336.925 228.256 319.689 223.381C319.689 223.381 308.957 220.782 309.282 206.809C309.607 192.836 322.29 155.791 322.29 155.791H336.925L337.575 165.215Z" fill="black"/>
<path d="M303.754 158.391C303.754 158.391 293.997 188.936 295.624 200.96C295.624 200.96 291.721 212.333 294.648 224.681C297.575 237.03 294.323 268.875 293.672 269.525C293.022 270.175 300.827 276.999 309.282 271.475C309.282 271.475 309.607 263.676 311.233 262.051C312.86 260.426 312.86 226.306 311.233 221.432C309.607 216.557 328.795 181.137 328.795 181.137C328.795 181.137 339.201 171.714 335.299 166.84C331.396 161.965 335.624 152.217 335.624 152.217L306.03 154.166L303.754 158.391Z" fill="#2F2E41"/>
<path d="M299.201 83.9764C306.385 83.9764 312.209 78.1569 312.209 70.9782C312.209 63.7995 306.385 57.98 299.201 57.98C292.016 57.98 286.193 63.7995 286.193 70.9782C286.193 78.1569 292.016 83.9764 299.201 83.9764Z" fill="#FFC1C7"/>
<path d="M307.656 65.129C307.656 65.129 318.063 77.1523 320.664 77.4773C323.266 77.8022 312.209 91.7752 312.209 91.7752C312.209 91.7752 306.03 81.3767 301.802 80.4018C297.575 79.427 307.656 65.129 307.656 65.129Z" fill="#FFC1C7"/>
<path d="M322.616 77.1523L320.99 74.8776C320.99 74.8776 309.785 84.8586 309.371 87.5045C309.092 88.9893 309.411 90.5241 310.258 91.7752L316.762 88.8506L320.014 82.3516L322.616 77.1523Z" fill="#3F3D56"/>
<path d="M303.103 157.741C303.103 157.741 300.502 165.54 302.453 165.215C304.404 164.89 304.404 160.665 306.681 160.665C308.957 160.665 310.258 157.091 310.258 157.091L303.103 157.741Z" fill="#3F3D56"/>
<path d="M319.689 158.391C319.689 158.391 327.169 174.638 336.6 173.014L338.441 172.225C339.211 171.896 339.839 171.306 340.214 170.558C340.59 169.811 340.689 168.955 340.494 168.142C339.595 164.399 337.943 158.391 336.6 158.391H319.689Z" fill="#3F3D56"/>
<path d="M286.221 71.794C286.221 71.794 287.493 67.7286 291.721 69.3534C295.949 70.9782 299.526 74.5527 300.502 71.9531C301.477 69.3534 303.974 66.9619 305.652 68.9701C307.331 70.9782 314.973 74.7152 314.648 72.7654C314.323 70.8157 318.713 59.2799 310.258 55.0555C301.802 50.8311 297.25 47.5815 293.022 50.8311C288.794 54.0806 278.388 60.2547 280.014 64.1542C281.64 68.0536 280.989 70.0033 283.591 70.9782C286.193 71.9531 286.221 71.794 286.221 71.794Z" fill="#2F2E41"/>
<path d="M324.242 79.102C324.242 79.102 323.916 76.1774 320.99 76.8273C318.063 77.4772 310.258 90.4754 310.258 90.4754C308.984 94.6254 308.006 98.8604 307.331 103.149C306.03 110.947 303.428 139.543 300.827 144.418C298.225 149.292 303.103 160.665 303.103 160.665C303.103 160.665 306.03 157.416 315.461 159.366C324.892 161.315 337.25 163.265 338.226 162.29C339.201 161.315 337.25 158.716 339.852 155.466C342.453 152.217 346.031 90.8003 333.022 83.9763C333.022 83.9763 326.843 79.102 324.242 79.102Z" fill="#536DFE"/>
<path opacity="0.1" d="M320.99 88.8507C320.99 88.8507 307.656 92.4252 313.835 103.799C313.835 103.799 323.917 123.621 319.689 124.921C315.461 126.22 295.949 125.57 295.949 125.57C295.949 125.57 293.835 132.557 296.111 132.882C298.388 133.207 332.372 144.743 336.274 137.594C340.177 130.445 336.274 99.5742 336.274 99.5742C336.274 99.5742 330.746 84.3013 320.99 88.8507Z" fill="black"/>
<path d="M264.089 124.048L285.704 135.912C285.829 135.995 285.971 136.05 286.12 136.072C286.269 136.094 286.421 136.084 286.565 136.041C286.709 135.999 286.843 135.925 286.955 135.826C287.068 135.726 287.158 135.603 287.218 135.466L292.513 124.406C292.613 124.091 292.597 123.75 292.467 123.446C292.337 123.142 292.102 122.894 291.804 122.749L273.859 113.506C273.638 113.373 273.375 113.326 273.122 113.375C272.869 113.423 272.642 113.563 272.486 113.768L263.522 122.207C263.433 122.364 263.378 122.537 263.359 122.716C263.34 122.896 263.357 123.077 263.41 123.249C263.464 123.421 263.551 123.581 263.668 123.718C263.785 123.856 263.928 123.968 264.089 124.048Z" fill="#2F2E41"/>
<path d="M265.532 122.414L285.796 133.988L291.188 124.276L273.804 114.83L265.532 122.414Z" fill="#3F3D56"/>
<path d="M282.92 119.135C283.028 119.045 283.029 118.87 282.924 118.744C282.818 118.617 282.645 118.588 282.538 118.678C282.43 118.768 282.428 118.943 282.533 119.069C282.639 119.196 282.812 119.225 282.92 119.135Z" fill="#F2F2F2"/>
<path d="M275.333 128.994C275.404 128.934 275.406 128.818 275.335 128.733C275.265 128.649 275.15 128.629 275.078 128.689C275.006 128.749 275.005 128.866 275.075 128.95C275.145 129.035 275.261 129.054 275.333 128.994Z" fill="#F2F2F2"/>
<path d="M296.319 133.912C296.319 133.912 275.473 135.372 278.357 131.495C281.241 127.617 295.053 124.693 297.447 125.762C299.841 126.832 296.319 133.912 296.319 133.912Z" fill="#FFC1C7"/>
<path d="M320.99 86.9009C320.99 86.9009 307.656 90.4754 313.835 101.849C313.835 101.849 323.917 121.671 319.689 122.971C315.461 124.271 295.949 123.621 295.949 123.621C295.949 123.621 291.396 134.669 293.672 134.994C295.949 135.319 332.372 142.793 336.274 135.644C340.177 128.495 336.274 97.6244 336.274 97.6244C336.274 97.6244 330.746 82.3516 320.99 86.9009Z" fill="#536DFE"/>
<path d="M230.196 72.611H125.255C121.89 72.611 119.163 75.3361 119.163 78.6977V124.661C119.163 128.022 121.89 130.747 125.255 130.747H230.196C233.56 130.747 236.287 128.022 236.287 124.661V78.6977C236.287 75.3361 233.56 72.611 230.196 72.611Z" fill="#F2F2F2"/>
<path d="M7.65727 18.2281C11.8863 18.2281 15.3145 14.8025 15.3145 10.5768C15.3145 6.35112 11.8863 2.92551 7.65727 2.92551C3.42828 2.92551 0 6.35112 0 10.5768C0 14.8025 3.42828 18.2281 7.65727 18.2281Z" fill="#536DFE"/>
<path d="M9.90947 15.5277C14.1385 15.5277 17.5667 12.1021 17.5667 7.87635C17.5667 3.65065 14.1385 0.225037 9.90947 0.225037C5.68047 0.225037 2.2522 3.65065 2.2522 7.87635C2.2522 12.1021 5.68047 15.5277 9.90947 15.5277Z" stroke="#3F3D56" stroke-miterlimit="10"/>
<path d="M100.896 114.545C105.125 114.545 108.553 111.119 108.553 106.893C108.553 102.668 105.125 99.242 100.896 99.242C96.6668 99.242 93.2385 102.668 93.2385 106.893C93.2385 111.119 96.6668 114.545 100.896 114.545Z" fill="#F2F2F2"/>
<path d="M103.148 111.844C107.377 111.844 110.805 108.419 110.805 104.193C110.805 99.9672 107.377 96.5415 103.148 96.5415C98.919 96.5415 95.4907 99.9672 95.4907 104.193C95.4907 108.419 98.919 111.844 103.148 111.844Z" stroke="#3F3D56" stroke-miterlimit="10"/>
<path d="M160.352 56.4847C164.581 56.4847 168.01 53.0591 168.01 48.8334C168.01 44.6077 164.581 41.1821 160.352 41.1821C156.123 41.1821 152.695 44.6077 152.695 48.8334C152.695 53.0591 156.123 56.4847 160.352 56.4847Z" fill="#536DFE"/>
<path d="M162.604 53.7842C166.833 53.7842 170.262 50.3586 170.262 46.1329C170.262 41.9072 166.833 38.4816 162.604 38.4816C158.375 38.4816 154.947 41.9072 154.947 46.1329C154.947 50.3586 158.375 53.7842 162.604 53.7842Z" stroke="#3F3D56" stroke-miterlimit="10"/>
<path d="M128.473 28.3437H23.5317C20.1675 28.3437 17.4403 31.0688 17.4403 34.4304V80.3935C17.4403 83.755 20.1675 86.4801 23.5317 86.4801H128.473C131.837 86.4801 134.564 83.755 134.564 80.3935V34.4304C134.564 31.0688 131.837 28.3437 128.473 28.3437Z" fill="#536DFE"/>
<path d="M135.318 23.404H30.3767C27.0125 23.404 24.2853 26.1291 24.2853 29.4907V75.4538C24.2853 78.8153 27.0125 81.5404 30.3767 81.5404H135.318C138.682 81.5404 141.409 78.8153 141.409 75.4538V29.4907C141.409 26.1291 138.682 23.404 135.318 23.404Z" stroke="#3F3D56" stroke-miterlimit="10"/>
<path d="M237.041 67.6713H132.1C128.735 67.6713 126.008 70.3964 126.008 73.758V119.721C126.008 123.083 128.735 125.808 132.1 125.808H237.041C240.405 125.808 243.132 123.083 243.132 119.721V73.758C243.132 70.3964 240.405 67.6713 237.041 67.6713Z" stroke="#3F3D56" stroke-miterlimit="10"/>
</g>
<defs>
<clipPath id="clip0">
<rect width="446" height="287" fill="white"/>
</clipPath>
</defs>
</svg>
